<?xml version="1.0" standalone="no"?>
<!DOCTYPE svg PUBLIC "-//W3C//DTD SVG 20010904//EN"
 "http://www.w3.org/TR/2001/REC-SVG-20010904/DTD/svg10.dtd">
<svg version="1.0" xmlns="http://www.w3.org/2000/svg"
 width="1088.000000pt" height="1088.000000pt" viewBox="0 0 1088.000000 1088.000000"
 preserveAspectRatio="xMidYMid meet">
<metadata>
Created by potrace 1.14, written by Peter Selinger 2001-2017
</metadata>
<g transform="translate(0.000000,1088.000000) scale(0.100000,-0.100000)"
fill="#000000" stroke="none">
<path d="M5198 9065 c-3 -3 -14 -7 -26 -10 -33 -6 -85 -45 -110 -82 -20 -31
-35 -79 -48 -153 -3 -14 -16 -81 -29 -150 -24 -125 -30 -156 -40 -207 -3 -16
-8 -39 -10 -53 -3 -14 -7 -36 -10 -50 -3 -14 -14 -70 -25 -125 -26 -126 -27
-135 -34 -180 -4 -20 -8 -40 -10 -44 -2 -3 -7 -28 -10 -55 -4 -27 -9 -52 -11
-55 -1 -3 -6 -22 -9 -41 -7 -41 -13 -74 -23 -115 -3 -16 -7 -37 -9 -45 -6 -42
-17 -102 -30 -160 -13 -64 -18 -88 -30 -163 -4 -20 -10 -39 -13 -41 -4 -3 -39
-7 -78 -10 -39 -3 -86 -8 -105 -10 -18 -3 -58 -8 -88 -12 -30 -3 -66 -8 -80
-10 -14 -1 -43 -5 -65 -8 -22 -2 -56 -7 -75 -10 -40 -7 -195 -36 -225 -42 -11
-2 -31 -6 -45 -9 -14 -2 -38 -8 -55 -11 -16 -4 -37 -8 -45 -9 -8 -1 -35 -8
-60 -14 -25 -7 -53 -15 -62 -16 -10 -2 -62 -16 -115 -30 -54 -15 -106 -29
-115 -30 -9 -2 -26 -9 -37 -15 -12 -6 -21 -8 -21 -6 0 6 -410 -133 -425 -144
-14 -10 -88 -35 -97 -32 -5 1 -8 -2 -8 -8 0 -5 -5 -10 -11 -10 -18 0 -213 -87
-378 -169 -84 -42 -165 -82 -180 -89 -14 -7 -33 -17 -41 -22 -8 -5 -64 -37
-125 -71 -60 -35 -121 -70 -135 -80 -14 -9 -77 -50 -140 -90 -166 -106 -406
-279 -503 -363 -12 -10 -38 -30 -57 -45 -152 -114 -203 -187 -202 -285 0 -94
51 -173 137 -212 96 -45 181 -28 286 58 41 33 85 69 99 81 14 13 43 36 65 52
22 17 42 32 45 35 3 3 41 32 85 65 44 33 82 63 83 67 2 4 9 8 16 8 6 0 27 13
46 30 19 16 40 29 47 30 6 0 13 3 15 8 5 11 192 132 205 132 6 0 13 4 15 9 2
7 153 101 163 101 1 0 46 25 100 55 53 30 103 55 110 55 7 0 15 3 17 8 3 7 55
33 198 100 59 28 312 134 350 147 3 1 12 4 20 8 79 31 386 130 470 151 14 4
66 17 115 30 195 51 575 120 723 131 67 5 73 4 68 -12 -12 -44 -35 -163 -39
-205 -1 -10 -5 -18 -10 -18 -4 0 -5 -4 -2 -10 3 -5 1 -27 -4 -47 -6 -21 -13
-56 -16 -78 -4 -22 -8 -48 -11 -57 -3 -10 -7 -29 -10 -43 -2 -14 -6 -35 -8
-47 -6 -32 -53 -276 -61 -313 -4 -16 -8 -39 -10 -50 -2 -11 -6 -31 -9 -45 -3
-14 -9 -45 -12 -70 -3 -25 -9 -49 -12 -54 -3 -5 -6 -22 -8 -37 -2 -16 -6 -40
-9 -54 -3 -14 -7 -37 -10 -52 -3 -16 -14 -71 -25 -123 -10 -52 -21 -108 -24
-125 -8 -45 -16 -88 -21 -105 -2 -8 -7 -31 -10 -50 -5 -33 -9 -54 -20 -110 -3
-14 -17 -81 -30 -150 -13 -69 -27 -136 -30 -150 -2 -14 -14 -72 -25 -130 -11
-58 -23 -116 -25 -130 -3 -14 -8 -38 -10 -55 -3 -16 -8 -37 -10 -45 -2 -8 -7
-31 -10 -50 -3 -19 -10 -57 -15 -85 -6 -27 -12 -61 -15 -75 -16 -81 -35 -178
-40 -200 -3 -14 -8 -41 -11 -60 -4 -19 -9 -44 -11 -55 -2 -11 -6 -29 -8 -40
-2 -11 -6 -27 -8 -35 -4 -16 -19 -103 -23 -135 -1 -11 -3 -20 -4 -20 -2 0 -9
-34 -14 -70 -2 -16 -9 -48 -14 -70 -6 -22 -13 -53 -15 -70 -4 -25 -18 -94 -62
-316 -2 -9 -6 -33 -9 -54 -4 -20 -8 -40 -10 -44 -4 -6 -18 -95 -19 -118 0 -7
-3 -13 -7 -13 -4 0 -6 -10 -5 -23 1 -12 0 -26 -3 -32 -4 -5 -7 -16 -8 -25 -1
-8 -4 -28 -8 -45 -3 -16 -8 -43 -11 -60 -3 -16 -11 -55 -17 -85 -6 -30 -12
-59 -13 -65 0 -5 -5 -30 -9 -55 -5 -25 -10 -54 -12 -65 -1 -11 -3 -20 -4 -20
-1 0 -3 -11 -6 -25 -2 -14 -11 -59 -20 -100 -9 -41 -18 -86 -20 -100 -2 -14
-9 -47 -14 -75 -6 -27 -12 -61 -15 -75 -3 -14 -10 -50 -16 -80 -7 -30 -13 -67
-14 -81 -1 -15 -5 -31 -8 -37 -4 -5 -9 -32 -13 -61 l-6 -51 3617 0 3616 0 -32
63 c-18 34 -41 74 -52 90 -10 15 -16 27 -13 27 3 0 -8 22 -24 49 -17 26 -30
51 -30 53 0 3 -20 41 -43 84 -24 44 -70 129 -102 189 -82 155 -116 218 -128
233 -5 6 -6 12 -2 12 5 0 2 8 -7 18 -8 9 -30 46 -48 82 -19 36 -54 101 -77
145 -24 44 -55 103 -68 130 -46 93 -99 138 -181 153 -106 19 -197 -33 -255
-143 -14 -28 -50 -95 -79 -150 -30 -55 -61 -115 -69 -132 -8 -18 -18 -33 -21
-33 -6 0 -69 197 -74 230 -1 8 -10 38 -18 65 -9 28 -28 91 -43 140 -15 50 -33
109 -41 132 -7 23 -16 52 -18 65 -6 27 -81 280 -96 323 -6 17 -13 37 -15 45
-1 8 -15 56 -30 105 -14 50 -27 95 -29 100 -1 6 -10 35 -19 65 -52 168 -108
358 -112 375 -3 11 -32 112 -66 225 -34 113 -62 210 -64 215 -1 6 -5 17 -8 25
-3 8 -16 51 -28 95 -12 44 -31 99 -42 122 -74 163 -299 198 -419 65 -37 -41
-51 -73 -92 -212 -69 -231 -108 -362 -111 -378 -2 -9 -14 -51 -27 -92 -14 -41
-32 -102 -42 -135 -29 -103 -48 -169 -60 -200 -6 -16 -11 -35 -12 -41 -2 -10
-41 -146 -67 -229 -6 -22 -12 -42 -13 -45 0 -3 -3 -12 -7 -20 -3 -8 -13 -42
-22 -75 -9 -33 -18 -67 -21 -75 -3 -8 -6 -17 -6 -20 -1 -3 -8 -25 -15 -50 -21
-68 -65 -214 -67 -225 -1 -5 -14 -48 -28 -95 -14 -47 -28 -94 -31 -105 -3 -11
-19 -65 -37 -120 -17 -55 -33 -110 -36 -123 -2 -13 -11 -42 -18 -65 -8 -23
-24 -76 -36 -117 -12 -41 -27 -92 -34 -113 -13 -45 -10 -48 -61 73 -15 36 -35
82 -46 103 -10 20 -17 37 -14 37 2 0 -10 30 -26 68 -17 37 -34 76 -38 87 -5
11 -18 41 -30 67 -12 26 -21 50 -21 53 0 2 -11 29 -25 59 -14 30 -25 57 -25
60 0 4 -11 29 -25 58 -14 28 -25 55 -25 60 0 4 -11 31 -24 60 -13 29 -40 91
-59 138 -20 47 -43 103 -53 125 -10 22 -17 43 -16 47 1 5 -2 8 -6 8 -5 0 -9 6
-9 13 0 30 -68 155 -102 188 -112 107 -285 92 -387 -33 -13 -17 -84 -182 -84
-197 0 -6 -4 -11 -10 -11 -5 0 -10 -5 -10 -12 0 -14 -92 -239 -96 -235 -2 1
-6 18 -9 37 -3 19 -17 91 -31 160 -14 69 -27 136 -28 150 -2 14 -6 32 -9 40
-3 8 -8 31 -11 50 -6 45 -14 87 -31 168 -8 36 -12 69 -9 74 3 4 1 8 -4 8 -5 0
-9 16 -10 35 -1 20 -4 40 -7 44 -2 5 -7 26 -11 47 -3 22 -10 57 -16 79 -5 22
-12 54 -14 70 -2 17 -6 41 -9 55 -3 14 -9 48 -15 75 -5 28 -11 61 -14 75 -2
14 -7 32 -10 40 -3 8 -8 33 -11 55 -6 40 -18 105 -29 160 -15 73 -68 342 -72
360 -1 11 -5 31 -9 45 -3 14 -8 39 -10 55 -5 30 -29 153 -41 210 -3 17 -7 37
-8 45 -1 8 -6 29 -9 45 -4 17 -9 44 -12 60 -5 33 -12 66 -20 105 -8 36 -14 71
-20 105 -3 17 -8 37 -10 45 -2 8 -7 35 -10 60 -4 24 -8 48 -11 51 -2 4 -6 24
-10 45 -3 21 -12 67 -20 103 -8 36 -17 82 -19 101 -5 31 -10 58 -22 110 -2 8
-6 26 -8 40 -5 30 -12 66 -20 100 -5 23 -23 120 -30 165 -2 11 -4 22 -5 25 -1
3 -2 8 -2 11 1 4 -3 21 -8 39 -5 18 -12 52 -16 74 -3 23 -6 43 -7 46 -4 10 19
11 83 4 66 -8 78 -10 83 -13 2 -3 23 -6 82 -16 76 -11 90 -14 115 -19 14 -4
39 -9 55 -12 17 -3 59 -12 95 -21 36 -8 74 -17 85 -18 82 -13 574 -169 637
-201 15 -8 30 -14 33 -13 7 2 120 -44 202 -82 34 -16 65 -29 68 -29 17 0 370
-179 500 -254 91 -52 171 -102 173 -108 2 -5 8 -8 13 -8 5 0 34 -17 65 -37 31
-21 64 -43 73 -48 37 -23 76 -50 81 -55 3 -3 18 -14 35 -24 16 -11 34 -23 40
-28 41 -34 223 -164 235 -168 8 -2 43 -6 78 -8 98 -6 176 40 223 131 38 73 27
184 -25 249 -43 54 -458 352 -573 411 -17 9 -37 22 -45 29 -7 7 -26 20 -43 28
-16 8 -69 39 -118 68 -48 28 -94 52 -102 52 -7 0 -15 4 -17 9 -4 12 -386 200
-393 193 -3 -3 -5 0 -5 7 0 7 -4 10 -9 6 -5 -3 -12 -1 -16 5 -3 5 -15 10 -26
10 -10 0 -19 5 -19 10 0 6 -8 10 -18 10 -10 0 -22 4 -27 8 -6 5 -32 17 -60 27
-27 10 -66 25 -85 34 -19 8 -37 15 -40 16 -6 0 -64 22 -95 35 -22 10 -234 81
-250 85 -5 1 -17 5 -25 8 -39 17 -415 114 -535 138 -134 27 -280 53 -365 65
-19 3 -48 7 -65 10 -43 6 -136 16 -162 18 -32 2 -41 14 -48 66 -4 24 -8 47
-10 50 -2 3 -6 21 -9 40 -3 19 -14 81 -25 138 -12 56 -23 115 -26 130 -3 15
-7 38 -10 52 -6 28 -22 109 -30 155 -2 17 -7 41 -10 55 -14 59 -15 66 -32 150
-4 19 -7 40 -8 45 -1 11 -7 43 -32 165 -8 41 -17 86 -19 100 -2 14 -7 39 -11
55 -9 40 -8 34 -18 90 -4 28 -9 55 -10 60 -3 11 -21 101 -30 150 -4 17 -8 43
-11 58 -11 79 -67 151 -138 181 -32 13 -128 21 -138 11z"/>
<path d="M433 5578 c-54 -14 -95 -65 -127 -159 -15 -46 -34 -97 -42 -114 -7
-16 -26 -68 -42 -115 -16 -47 -46 -130 -67 -185 -20 -55 -51 -136 -66 -180
-16 -44 -33 -87 -38 -95 -5 -9 -12 -31 -16 -50 -4 -19 -12 -41 -18 -48 -6 -8
-12 -44 -13 -81 -4 -97 37 -176 116 -226 70 -44 133 -50 235 -22 38 11 74 20
80 21 5 1 16 5 23 9 6 5 12 6 12 3 0 -3 12 -1 28 5 23 10 65 22 227 69 17 5
62 18 100 29 39 10 111 31 160 46 50 14 115 33 145 41 128 35 176 79 178 167
2 47 -19 80 -114 180 -38 40 -112 120 -164 176 -52 57 -115 124 -140 150 -25
26 -92 99 -150 161 -58 62 -126 134 -152 160 -52 53 -103 72 -155 58z"/>
</g>
</svg>
