<?xml version="1.0" encoding="utf-8"?>
<!-- Generator: Adobe Illustrator 27.0.1, SVG Export Plug-In . SVG Version: 6.00 Build 0)  -->
<svg version="1.1" id="Layer_1" xmlns="http://www.w3.org/2000/svg" xmlns:xlink="http://www.w3.org/1999/xlink" x="0px" y="0px"
	 viewBox="0 0 136.12 90.94" style="enable-background:new 0 0 136.12 90.94;" xml:space="preserve">
<style type="text/css">
	.st0{fill:none;stroke:#4A484A;stroke-width:6;stroke-linecap:round;stroke-miterlimit:10;}
	.st1{fill:#2D6B8E;}
	.st2{fill:#C73D53;}
</style>
<path class="st0" d="M17.34,42.3C30.21,31.2,46.72,24.52,64.71,24.52c16.61,0,31.95,5.69,44.34,15.3"/>
<path class="st1" d="M62.9,2.28L45.6,90.94h40.15L68.44,2.28C67.85-0.76,63.5-0.76,62.9,2.28z"/>
<path class="st1" d="M123.05,75.76l-8.1,15.17h21.18l-8.1-15.17C126.96,73.77,124.11,73.77,123.05,75.76z"/>
<path class="st1" d="M84.15,66.61L73.89,90.94h26.47L90.11,66.61C88.99,63.97,85.26,63.97,84.15,66.61z"/>
<path class="st1" d="M105.95,51.42L94.22,90.94h29.66l-11.73-39.52C111.23,48.33,106.86,48.33,105.95,51.42z"/>
<path class="st2" d="M4.1,59.74l10.96-3.18c1.32-0.38,1.77-2.02,0.84-3.03l-8.68-9.31c-0.94-1.01-2.6-0.67-3.08,0.62L0.2,55.56
	C-0.7,58.02,1.58,60.47,4.1,59.74z"/>
</svg>
