<?xml version="1.0" encoding="utf-8"?>
<!-- Generator: Adobe Illustrator 27.0.1, SVG Export Plug-In . SVG Version: 6.00 Build 0)  -->
<svg version="1.1" id="Layer_1" xmlns="http://www.w3.org/2000/svg" xmlns:xlink="http://www.w3.org/1999/xlink" x="0px" y="0px"
	 viewBox="0 0 524.25 186.02" style="enable-background:new 0 0 524.25 186.02;" xml:space="preserve">
<style type="text/css">
	.st0{fill:#2D6B8E;}
	.st1{fill:#4A484A;}
	.st2{fill:#C73D53;}
	.st3{fill:none;stroke:#4A484A;stroke-width:6;stroke-linecap:round;stroke-miterlimit:10;}
</style>
<path class="st0" d="M451.03,73.79l-17.31,88.66h40.15l-17.31-88.66C455.97,70.75,451.63,70.75,451.03,73.79z"/>
<path class="st0" d="M511.18,147.27l-8.1,15.17h21.18l-8.1-15.17C515.09,145.28,512.24,145.28,511.18,147.27z"/>
<path class="st0" d="M472.27,138.12l-10.26,24.33h26.47l-10.26-24.33C477.12,135.48,473.39,135.48,472.27,138.12z"/>
<path class="st0" d="M494.08,122.93l-11.73,39.52h29.66l-11.73-39.52C499.36,119.84,494.99,119.84,494.08,122.93z"/>
<path class="st1" d="M43.85,145.88c0,5.27-1.94,9.39-5.81,12.35c-3.87,2.96-9.47,4.45-16.8,4.45c-3.13,0-6.01-0.27-8.65-0.8
	c-2.64-0.54-4.88-1.24-6.73-2.1c-1.85-0.86-3.29-1.85-4.32-2.96C0.51,155.7,0,154.57,0,153.41c0-0.99,0.27-1.93,0.8-2.84
	c0.53-0.91,1.34-1.69,2.41-2.35c2.22,1.65,4.82,3.11,7.78,4.38c2.96,1.28,6.34,1.91,10.13,1.91c8.56,0,12.85-2.88,12.85-8.65
	c0-4.69-2.84-7.74-8.52-9.14l-10.25-2.72c-5.02-1.32-8.69-3.23-10.99-5.74c-2.31-2.51-3.46-5.74-3.46-9.7c0-2.14,0.43-4.2,1.3-6.18
	c0.86-1.98,2.2-3.71,4.01-5.19c1.81-1.48,4.05-2.66,6.73-3.52c2.68-0.86,5.82-1.3,9.45-1.3c5.76,0,10.42,0.85,13.96,2.53
	c3.54,1.69,5.31,3.64,5.31,5.87c0,1.07-0.27,2.02-0.8,2.84c-0.54,0.82-1.26,1.44-2.16,1.85c-1.48-0.99-3.58-2.06-6.3-3.21
	c-2.72-1.15-5.93-1.73-9.63-1.73c-3.71,0-6.65,0.7-8.83,2.1c-2.18,1.4-3.27,3.38-3.27,5.93c0,1.89,0.62,3.5,1.85,4.82
	c1.24,1.32,3.29,2.31,6.18,2.96l8.52,2.1c5.6,1.4,9.8,3.48,12.6,6.24C42.45,137.46,43.85,141.19,43.85,145.88z"/>
<path class="st1" d="M158.97,155.14c-1.4,1.15-3.32,2.14-5.74,2.96c-2.43,0.82-5.33,1.24-8.71,1.24c-3.62,0-7.04-0.51-10.25-1.54
	c-3.21-1.03-6.03-2.68-8.46-4.94c-2.43-2.26-4.37-5.21-5.81-8.83c-1.44-3.62-2.16-8.03-2.16-13.22c0-4.69,0.7-8.81,2.1-12.35
	c1.4-3.54,3.35-6.5,5.87-8.89c2.51-2.39,5.5-4.18,8.95-5.37c3.46-1.19,7.29-1.79,11.49-1.79c3.79,0,7.27,0.48,10.44,1.42
	c3.17,0.95,5.82,2.12,7.97,3.52c1.24,0.82,2.24,1.75,3.03,2.78c0.78,1.03,1.17,2.29,1.17,3.77v49.65c0,4.12-0.68,7.6-2.04,10.44
	c-1.36,2.84-3.25,5.15-5.68,6.92c-2.43,1.77-5.29,3.07-8.58,3.89c-3.29,0.82-6.84,1.24-10.62,1.24c-4.2,0-7.76-0.43-10.68-1.3
	c-2.92-0.87-4.92-1.63-5.99-2.29c-2.47-1.4-3.71-3.17-3.71-5.31c0-1.15,0.27-2.12,0.8-2.9c0.53-0.78,1.21-1.38,2.04-1.79
	c1.73,1.32,4.16,2.53,7.29,3.64c3.13,1.11,6.55,1.67,10.25,1.67c5.52,0,9.74-1.17,12.66-3.52c2.92-2.35,4.38-6.11,4.38-11.3V155.14z
	 M145.63,151.19c3.29,0,5.99-0.51,8.09-1.54c2.1-1.03,3.85-2.2,5.25-3.52v-32.11c-1.4-0.91-3.15-1.71-5.25-2.41
	c-2.1-0.7-4.59-1.05-7.47-1.05c-5.6,0-10.07,1.69-13.4,5.06c-3.33,3.38-5,8.4-5,15.07c0,3.71,0.45,6.85,1.36,9.45
	c0.91,2.59,2.16,4.71,3.77,6.36c1.61,1.65,3.5,2.84,5.68,3.58C140.83,150.82,143.16,151.19,145.63,151.19z"/>
<path class="st1" d="M233.54,113.77c-2.59-2.14-6.07-3.21-10.44-3.21c-3.29,0-6.22,0.41-8.77,1.24c-2.55,0.82-4.74,1.77-6.55,2.84
	v46.19c-0.41,0.17-1.03,0.35-1.85,0.56c-0.82,0.2-1.73,0.31-2.72,0.31c-3.54,0-5.31-1.48-5.31-4.45v-42.12
	c0-1.73,0.35-3.15,1.05-4.26c0.7-1.11,1.91-2.2,3.64-3.27c2.14-1.32,4.98-2.51,8.52-3.58c3.54-1.07,7.53-1.61,11.98-1.61
	c7.49,0,13.4,1.69,17.72,5.06c4.32,3.38,6.48,8.69,6.48,15.93v37.43c-0.41,0.17-1.05,0.35-1.91,0.56c-0.87,0.2-1.75,0.31-2.66,0.31
	c-3.54,0-5.31-1.48-5.31-4.45v-33.35C237.43,119.28,236.13,115.91,233.54,113.77z"/>
<path class="st1" d="M297.71,102.4c7.16,0,12.85,1.61,17.04,4.82s6.3,8.28,6.3,15.19v29.27c0,1.81-0.35,3.19-1.05,4.14
	c-0.7,0.95-1.75,1.83-3.15,2.66c-1.98,1.15-4.59,2.16-7.84,3.03c-3.25,0.86-6.98,1.3-11.18,1.3c-7.74,0-13.73-1.52-17.97-4.57
	c-4.24-3.05-6.36-7.45-6.36-13.22c0-5.44,1.77-9.53,5.31-12.29c3.54-2.76,8.52-4.47,14.95-5.13l17.54-1.73v-3.46
	c0-4.12-1.23-7.12-3.71-9.02c-2.47-1.89-5.8-2.84-10-2.84c-3.46,0-6.71,0.49-9.76,1.48c-3.05,0.99-5.76,2.1-8.15,3.33
	c-0.66-0.57-1.26-1.23-1.79-1.98c-0.54-0.74-0.8-1.56-0.8-2.47c0-1.15,0.29-2.1,0.86-2.84c0.58-0.74,1.48-1.44,2.72-2.1
	c2.22-1.15,4.77-2.04,7.66-2.66C291.2,102.71,294.33,102.4,297.71,102.4z M297.83,154.65c3.46,0,6.32-0.35,8.58-1.05
	c2.26-0.7,3.89-1.38,4.88-2.04v-17.91l-15.32,1.61c-4.28,0.41-7.45,1.38-9.51,2.9c-2.06,1.52-3.09,3.77-3.09,6.73
	c0,3.13,1.19,5.54,3.58,7.23C289.35,153.81,292.97,154.65,297.83,154.65z"/>
<path class="st1" d="M379.91,110.68c-2.8,0-5.4,0.47-7.78,1.42c-2.39,0.95-4.45,2.35-6.18,4.2c-1.73,1.85-3.09,4.16-4.08,6.92
	c-0.99,2.76-1.48,5.91-1.48,9.45c0,7.08,1.77,12.5,5.31,16.24c3.54,3.75,8.28,5.62,14.2,5.62c3.46,0,6.34-0.47,8.65-1.42
	c2.3-0.95,4.36-2.04,6.18-3.27c0.91,0.49,1.65,1.11,2.22,1.85c0.57,0.74,0.87,1.65,0.87,2.72c0,1.15-0.45,2.22-1.36,3.21
	c-0.91,0.99-2.16,1.85-3.77,2.59c-1.61,0.74-3.5,1.34-5.68,1.79c-2.18,0.45-4.55,0.68-7.1,0.68c-4.28,0-8.23-0.62-11.86-1.85
	c-3.62-1.24-6.75-3.09-9.39-5.56c-2.64-2.47-4.69-5.58-6.18-9.33c-1.48-3.75-2.22-8.17-2.22-13.28c0-5.02,0.78-9.41,2.35-13.15
	c1.56-3.75,3.66-6.9,6.3-9.45c2.63-2.55,5.74-4.47,9.33-5.74c3.58-1.28,7.39-1.91,11.42-1.91c2.55,0,4.92,0.23,7.1,0.68
	c2.18,0.45,4.05,1.09,5.62,1.91c1.56,0.82,2.78,1.75,3.64,2.78c0.87,1.03,1.3,2.08,1.3,3.15c0,0.99-0.29,1.85-0.87,2.59
	s-1.32,1.32-2.22,1.73c-1.81-1.24-3.79-2.3-5.93-3.21C386.16,111.13,383.36,110.68,379.91,110.68z"/>
<path class="st1" d="M85.62,160.83c-0.41,0.17-1.03,0.35-1.85,0.56c-0.82,0.2-1.73,0.31-2.72,0.31c-3.54,0-5.31-1.48-5.31-4.45
	v-52.99c0.41-0.16,1.05-0.35,1.91-0.56c0.87-0.2,1.79-0.31,2.78-0.31c3.46,0,5.19,1.52,5.19,4.57V160.83z"/>
<path class="st2" d="M81.61,87.94l10.96-3.18c1.32-0.38,1.77-2.02,0.84-3.03l-8.68-9.31c-0.94-1.01-2.6-0.67-3.08,0.62l-3.94,10.71
	C76.8,86.22,79.08,88.67,81.61,87.94z"/>
<path class="st3" d="M97.25,69.81C145.6,28.08,207.59,3.01,275.18,3.01c62.39,0,120.01,21.36,166.54,57.47"/>
</svg>
